          <svg class="logo-main" xmlns="http://www.w3.org/2000/svg" width="54" height="44" viewBox="0 0 54 44"
            fill="none">
            <path
              d="M0 9.30933H27.1323V13.8801L26.8398 13.6973C26.7666 13.6607 23.8413 9.71156 17.369 9.71156C16.8571 9.71156 16.4183 9.93095 16.0527 10.2601C15.7236 10.5891 15.5407 11.0645 15.5407 11.5764V34.9058H11.5916V11.5764C11.5916 11.0645 11.3722 10.5891 11.0431 10.2601C10.6774 9.93095 10.2386 9.71156 9.72667 9.71156C3.25441 9.71156 0.329098 13.6607 0.255966 13.6973L0 13.8801V9.30933ZM47.9028 30.4813C48.4879 32.0171 49.3655 33.4066 50.4625 34.6133L50.755 34.9058H45.9282L45.8917 34.8327C44.7581 32.8947 44.429 30.6641 44.429 28.4336C44.429 27.7388 44.4656 27.0806 44.5022 26.3858C44.5387 25.9836 44.5753 25.5448 44.5753 25.1426C44.6484 23.7896 44.5387 22.8023 44.2096 21.9247C44.0999 21.5225 43.844 21.1934 43.5149 20.9374C43.4417 20.8643 43.3686 20.7912 43.2589 20.718C41.8328 19.6576 39.7851 19.3285 37.8105 19.8405C37.6277 19.9136 37.4448 19.9502 37.262 20.0233C35.8725 20.4986 34.6292 21.3397 33.6785 22.4367L33.2031 22.9486V34.9058H29.2905V9.30933H33.2031V22.3635L36.6404 18.5241C36.9329 18.195 37.262 17.8293 37.5911 17.4636L44.8678 9.30933H51.1938L50.3528 9.67499C50.2796 9.71155 42.2716 13.1854 37.8836 17.7196L35.4702 20.4255C36.2016 19.9867 36.9695 19.6942 37.7008 19.4748C39.7851 18.9629 41.9425 19.292 43.4783 20.4255C43.7708 20.6083 44.0268 20.8277 44.2462 21.0837L44.2828 21.1203C45.1969 22.071 45.8917 23.3874 46.4402 25.1426C46.623 25.8739 46.8058 26.6052 46.9887 27.3C47.2446 28.3604 47.5006 29.4574 47.9028 30.4813Z"
              fill="white" />
            <path fill-rule="evenodd" clip-rule="evenodd"
              d="M37.2479 0.606234C31.1923 0.978024 24.1031 3.43346 17.4269 7.89868C10.7506 12.3639 5.77413 17.9781 3.11804 23.4329C0.459202 28.8934 0.144548 34.1449 2.68911 37.9493C5.23359 41.7538 10.2073 43.4684 16.2692 43.0962C22.3249 42.7244 29.414 40.269 36.0903 35.8038C42.7666 31.3386 47.743 25.7243 50.3991 20.2695C53.0581 14.809 53.3726 9.55751 50.8282 5.75305C48.2837 1.94859 43.31 0.233988 37.2479 0.606234ZM37.2293 0.0506989C43.397 -0.327946 48.6069 1.40914 51.3008 5.43693C53.9946 9.46481 53.6107 14.9432 50.9054 20.4989C48.1974 26.0605 43.1442 31.749 36.3967 36.2619C29.6493 40.7747 22.4621 43.2727 16.288 43.6518C10.1201 44.0304 4.91034 42.2933 2.2164 38.2654C-0.477448 34.2376 -0.0934995 28.7593 2.61178 23.2035C5.31988 17.642 10.373 11.9534 17.1205 7.44059C23.868 2.92774 31.055 0.429801 37.2293 0.0506989Z"
              fill="white" />
          </svg>