<svg xmlns="http://www.w3.org/2000/svg"  viewBox="0 0 73 73" fill="none">
  <path d="M56.9326 72.8712L16.9537 72.9092C8.15838 72.9172 0.956185 65.729 0.94619 56.9336L0.90821 16.9547C0.900214 8.15936 8.08842 0.957161 16.8838 0.947166L56.8627 0.909186C65.658 0.901191 72.8602 8.0894 72.8702 16.8848L72.9082 56.8636C72.9182 65.661 65.728 72.8632 56.9326 72.8712Z" fill="black"/>
  <path d="M59.9082 37.7098C59.9082 33.7753 58.5967 30.5119 56.3578 27.9536C56.601 27.4001 56.8542 26.6575 56.98 25.7241C57.2685 23.595 56.928 22.3176 56.6395 21.0674C56.3511 19.8172 56.0106 18.9383 56.0106 18.9383C56.0106 18.9383 54.4643 18.7782 53.1545 19.2313C51.8447 19.6844 50.7177 20.0301 49.0926 21.0146C48.3329 21.4745 47.5681 21.9786 46.9627 22.3874C44.3749 21.6584 41.5289 21.2837 38.5353 21.2837C35.5148 21.2837 32.6437 21.6601 30.0374 22.3942C29.4303 21.9837 28.6605 21.4762 27.8958 21.0129C26.2707 20.0284 25.1437 19.6827 23.8339 19.2296C22.5241 18.7765 20.9778 18.9366 20.9778 18.9366C20.9778 18.9366 20.6373 19.8155 20.3489 21.0657C20.0604 22.3159 19.72 23.5933 20.0084 25.7224C20.1375 26.6796 20.3992 27.4358 20.6491 27.9928C18.4521 30.5358 17.1641 33.7787 17.1641 37.7081C17.1641 47.8987 22.5844 52.5503 32.4608 53.7783C31.3087 55.0149 30.5355 56.5989 30.2756 58.3617C29.6266 58.6513 28.8786 58.9238 28.1591 59.0328C26.3076 59.3173 24.3504 59.0328 23.4079 58.4656C22.4654 57.8984 21.3467 56.621 20.5082 55.3776C19.8005 54.3284 18.7791 53.1106 17.8533 52.6814C16.6307 52.1142 15.4417 51.9013 14.7792 52.0069C14.1151 52.1142 13.8015 52.6099 13.9407 52.9658C14.0799 53.3201 14.744 53.8532 15.4434 54.2433C16.1427 54.6333 17.2261 55.6979 17.855 56.7266C18.556 57.8746 18.6936 58.5372 19.2873 59.8487C19.7049 60.7718 21.1337 61.9249 22.1517 62.5449C23.0255 63.078 24.7714 63.3812 26.6598 63.4681C27.3122 63.4987 28.8534 63.3046 30.1532 63.1172V69.5044C30.1532 70.5928 30.2173 71.6436 30.2173 72.9092C31.0537 72.9092 34.901 72.9092 38.5353 72.9092C42.1679 72.9092 43.5991 72.9092 46.9446 72.9092C46.9446 72.0654 46.9208 70.5945 46.9208 69.5061V59.6204C46.9208 57.3568 46.0369 55.3112 44.6181 53.7868C54.4224 52.5911 59.9082 48.0503 59.9082 37.7098ZM17.1339 53.7085C16.8756 53.5739 16.7364 53.3252 16.8236 53.1498C16.9108 52.9744 17.1926 52.942 17.4508 53.0766C17.7091 53.2111 17.8483 53.4598 17.7611 53.6352C17.6739 53.8106 17.3921 53.843 17.1339 53.7085ZM19.1665 54.9944C19.0307 55.1443 18.7388 55.0966 18.5141 54.8888C18.2894 54.681 18.2173 54.3898 18.3531 54.2399C18.489 54.09 18.7808 54.1377 19.0055 54.3455C19.2302 54.5533 19.3024 54.8445 19.1665 54.9944ZM20.431 57.1235C20.26 57.2461 19.9698 57.132 19.7837 56.868C19.5975 56.604 19.5858 56.2889 19.7568 56.1662C19.9279 56.0436 20.218 56.1577 20.4042 56.4217C20.5887 56.6857 20.6021 57.0008 20.431 57.1235ZM22.2473 58.7262C22.1316 58.917 21.8029 58.9255 21.5144 58.7467C21.226 58.5678 21.0851 58.2681 21.2008 58.0773C21.3165 57.8865 21.6453 57.878 21.9337 58.0569C22.2222 58.2357 22.3631 58.5355 22.2473 58.7262ZM23.9647 60.2949C23.6075 60.2506 23.3425 60.0241 23.3727 59.7891C23.4012 59.554 23.7148 59.4007 24.0703 59.445C24.4276 59.4893 24.6925 59.7158 24.6624 59.9509C24.6338 60.1842 24.3219 60.3392 23.9647 60.2949ZM26.7336 60.702C26.3529 60.6799 26.056 60.4584 26.0711 60.2098C26.0862 59.9611 26.4065 59.7754 26.7872 59.7976C27.1679 59.8197 27.4648 60.0411 27.4497 60.2898C27.4346 60.5402 27.1143 60.7241 26.7336 60.702ZM29.3465 60.4363C28.9406 60.4363 28.6119 60.2217 28.6119 59.9577C28.6119 59.6937 28.9406 59.4791 29.3465 59.4791C29.7523 59.4791 30.081 59.6937 30.081 59.9577C30.081 60.2217 29.7507 60.4363 29.3465 60.4363Z" fill="white"/>
</svg>