<svg xmlns="http://www.w3.org/2000/svg" viewBox="0 0 73 73" fill="none">
  <path d="M56.1966 72.1421L16.1966 72.1801C7.39658 72.1881 0.190585 64.9961 0.180585 56.1961L0.142585 16.1961C0.134585 7.3961 7.32659 0.190097 16.1266 0.180097L56.1266 0.142097C64.9266 0.134097 72.1326 7.3261 72.1426 16.1261L72.1806 56.1261C72.1906 64.9281 64.9966 72.1341 56.1966 72.1421Z" fill="url(#paint0_radial_891_251)"/>
  <path d="M56.1966 72.1421L16.1966 72.1801C7.39658 72.1881 0.190585 64.9961 0.180585 56.1961L0.142585 16.1961C0.134585 7.3961 7.32659 0.190097 16.1266 0.180097L56.1266 0.142097C64.9266 0.134097 72.1326 7.3261 72.1426 16.1261L72.1806 56.1261C72.1906 64.9281 64.9966 72.1341 56.1966 72.1421Z" fill="url(#paint1_radial_891_251)"/>
  <path d="M36.1621 50.1616C28.4441 50.1616 22.1621 43.8816 22.1621 36.1616C22.1621 28.4416 28.4441 22.1616 36.1621 22.1616C43.8801 22.1616 50.1621 28.4416 50.1621 36.1616C50.1621 43.8816 43.8801 50.1616 36.1621 50.1616ZM36.1621 26.1616C30.6481 26.1616 26.1621 30.6476 26.1621 36.1616C26.1621 41.6756 30.6481 46.1616 36.1621 46.1616C41.6761 46.1616 46.1621 41.6756 46.1621 36.1616C46.1621 30.6476 41.6761 26.1616 36.1621 26.1616Z" fill="white"/>
  <path d="M51.1621 24.1616C52.819 24.1616 54.1621 22.8185 54.1621 21.1616C54.1621 19.5048 52.819 18.1616 51.1621 18.1616C49.5053 18.1616 48.1621 19.5048 48.1621 21.1616C48.1621 22.8185 49.5053 24.1616 51.1621 24.1616Z" fill="white"/>
  <path d="M48.1621 62.1616H24.1621C16.4441 62.1616 10.1621 55.8816 10.1621 48.1616V24.1616C10.1621 16.4416 16.4441 10.1616 24.1621 10.1616H48.1621C55.8801 10.1616 62.1621 16.4416 62.1621 24.1616V48.1616C62.1621 55.8816 55.8801 62.1616 48.1621 62.1616ZM24.1621 14.1616C18.6481 14.1616 14.1621 18.6476 14.1621 24.1616V48.1616C14.1621 53.6756 18.6481 58.1616 24.1621 58.1616H48.1621C53.6761 58.1616 58.1621 53.6756 58.1621 48.1616V24.1616C58.1621 18.6476 53.6761 14.1616 48.1621 14.1616H24.1621Z" fill="white"/>
  <defs>
    <radialGradient id="paint0_radial_891_251" cx="0" cy="0" r="1" gradientUnits="userSpaceOnUse" gradientTransform="translate(26.9226 72.2321) scale(89.798 89.798)">
      <stop stop-color="#FFDD55"/>
      <stop offset="0.328" stop-color="#FF543F"/>
      <stop offset="0.348" stop-color="#FC5245"/>
      <stop offset="0.504" stop-color="#E64771"/>
      <stop offset="0.643" stop-color="#D53E91"/>
      <stop offset="0.761" stop-color="#CC39A4"/>
      <stop offset="0.841" stop-color="#C837AB"/>
    </radialGradient>
    <radialGradient id="paint1_radial_891_251" cx="0" cy="0" r="1" gradientUnits="userSpaceOnUse" gradientTransform="translate(11.7346 -0.757299) scale(59.626 39.7288)">
      <stop stop-color="#4168C9"/>
      <stop offset="0.999" stop-color="#4168C9" stop-opacity="0"/>
    </radialGradient>
  </defs>
</svg>