<svg xmlns="http://www.w3.org/2000/svg" viewBox="0 0 73 73" fill="none">
  <path d="M56.4815 72.4171L16.5026 72.4551C7.70721 72.4631 0.505013 65.2749 0.495018 56.4795L0.457038 16.5006C0.449042 7.70526 7.63725 0.50306 16.4326 0.493065L56.4115 0.455085C65.2069 0.447089 72.4091 7.6353 72.4191 16.4307L72.457 56.4095C72.467 65.2069 65.2768 72.4091 56.4815 72.4171Z" fill="#0288D1"/>
  <path d="M12.457 26.4551H22.457L22.457 60.4551H12.457L12.457 26.4551ZM17.427 22.4551H17.371C14.387 22.4551 12.457 20.2311 12.457 17.4531C12.457 14.6151 14.447 12.4551 17.485 12.4551C20.527 12.4551 22.401 14.6151 22.457 17.4531C22.457 20.2291 20.527 22.4551 17.427 22.4551ZM60.457 60.4551H50.457V42.2571C50.457 37.8611 48.007 34.8611 44.073 34.8611C41.071 34.8611 39.447 36.8851 38.659 38.8411C38.371 39.5411 38.457 41.4771 38.457 42.4551V60.4551H28.457L28.457 26.4551H38.457V31.6871C39.899 29.4551 42.157 26.4551 47.933 26.4551C55.089 26.4551 60.455 30.9551 60.455 41.0031L60.457 60.4551Z" fill="white"/>
</svg>