<svg xmlns="http://www.w3.org/2000/svg"  viewBox="0 0 72 72" fill="none">
  <path d="M56.0244 71.962L16.0455 72C7.25018 72.008 0.0479814 64.8198 0.0379867 56.0244L6.66411e-06 16.0455C-0.00798912 7.25018 7.18022 0.0479814 15.9756 0.0379867L55.9545 6.66411e-06C64.7498 -0.00798912 71.952 7.18022 71.962 15.9756L72 55.9545C72.01 64.7518 64.8198 71.954 56.0244 71.962Z" fill="white"/>
  <path d="M26 23C22.5522 23 19.2456 24.3696 16.8076 26.8076C14.3696 29.2456 13 32.5522 13 36C13 39.4478 14.3696 42.7544 16.8076 45.1924C19.2456 47.6304 22.5522 49 26 49C29.4478 49 32.7544 47.6304 35.1924 45.1924C37.6304 42.7544 39 39.4478 39 36C39 32.5522 37.6304 29.2456 35.1924 26.8076C32.7544 24.3696 29.4478 23 26 23ZM46.5 24C42.91 24 40 29.373 40 36C40 37.243 40.102 38.441 40.292 39.568C40.545 41.071 40.954 42.447 41.484 43.633C41.749 44.226 42.044 44.771 42.365 45.26C43.007 46.238 43.753 46.993 44.567 47.461C45.178 47.811 45.827 48 46.5 48C47.173 48 47.822 47.811 48.433 47.461C49.247 46.993 49.993 46.238 50.635 45.26C50.956 44.771 51.251 44.226 51.516 43.633C52.046 42.448 52.455 41.071 52.708 39.568C52.898 38.441 53 37.243 53 36C53 29.373 50.09 24 46.5 24ZM56.5 25C56.241 25 55.991 25.173 55.757 25.495C55.6 25.709 55.45 25.989 55.309 26.328C55.238 26.497 55.169 26.681 55.103 26.879C54.97 27.274 54.846 27.725 54.733 28.222C54.507 29.217 54.324 30.403 54.197 31.719C54.134 32.377 54.085 33.068 54.051 33.784C54.017 34.499 54 35.241 54 36C54 36.759 54.017 37.501 54.051 38.217C54.084 38.933 54.133 39.624 54.197 40.282C54.324 41.598 54.507 42.783 54.733 43.779C54.846 44.277 54.97 44.727 55.103 45.122C55.169 45.32 55.238 45.504 55.309 45.673C55.451 46.012 55.601 46.292 55.757 46.506C55.991 46.827 56.241 47 56.5 47C57.881 47 59 42.075 59 36C59 29.925 57.881 25 56.5 25Z" fill="black"/>
</svg>