<svg xmlns="http://www.w3.org/2000/svg" viewBox="0 0 72 72" fill="none">
  <path d="M56.0244 71.962L16.0455 72C7.25018 72.008 0.0479814 64.8198 0.0379867 56.0244L6.66411e-06 16.0455C-0.00798912 7.25018 7.18022 0.0479814 15.9756 0.0379867L55.9545 6.66411e-06C64.7498 -0.00798912 71.952 7.18022 71.962 15.9756L72 55.9545C72.01 64.7518 64.8198 71.954 56.0244 71.962Z" fill="#E60023"/>
  <path d="M36.8319 6C20.6116 6 12 16.9707 12 28.9142C12 34.4687 14.9341 41.382 19.6288 43.5839C20.3398 43.9175 20.7215 43.7733 20.8848 43.0786C21.0105 42.5515 21.6436 39.9795 21.9283 38.7839C22.0194 38.4023 21.9747 38.0746 21.6682 37.6988C20.1144 35.7998 18.8714 32.3104 18.8714 29.0569C18.8714 20.7047 25.1472 12.6235 35.8388 12.6235C45.0706 12.6235 51.5344 18.963 51.5344 28.0287C51.5344 38.2712 46.4003 45.368 39.7212 45.368C36.0325 45.368 33.2704 42.2936 34.1564 38.5232C35.2188 34.023 37.2697 29.1676 37.2697 25.9171C37.2697 23.0102 35.7232 20.5839 32.5159 20.5839C28.7448 20.5839 25.7168 24.5131 25.7168 29.7793C25.7168 33.1304 26.8413 35.3993 26.8413 35.3993C26.8413 35.3993 23.1165 51.2677 22.4342 54.2211C21.6789 57.4819 21.9733 62.0622 22.3002 65.057C23.1478 65.3918 23.9958 65.7267 24.8721 66C26.4071 63.4861 28.6958 59.3629 29.5442 56.0751C30.0023 54.3027 31.8871 47.0734 31.8871 47.0734C33.1114 49.4284 36.6901 51.422 40.4988 51.422C51.8321 51.422 60 40.9203 60 27.8699C60 15.3585 49.8692 6 36.8319 6Z" fill="white"/>
</svg>