<svg xmlns="http://www.w3.org/2000/svg"  viewBox="0 0 72 72" fill="none">
  <path d="M56.0244 71.962L16.0455 72C7.25018 72.008 0.0479814 64.8198 0.0379867 56.0244L6.66411e-06 16.0455C-0.00798912 7.25018 7.18022 0.0479814 15.9756 0.0379867L55.9545 6.66411e-06C64.7498 -0.00798912 71.952 7.18022 71.962 15.9756L72 55.9545C72.01 64.7518 64.8198 71.954 56.0244 71.962Z" fill="black"/>
  <path d="M16.0951 18L31.1526 38.1284L16 54.4937H19.4102L32.6763 40.1657L43.3948 54.4937H55L39.0953 33.2331L53.1992 18H49.789L37.5716 31.1958L27.7002 18H16.0951ZM21.1101 20.5114H26.4415L49.9842 51.9819H44.6528L21.1101 20.5114Z" fill="white"/>
</svg>